#!OML:ASF F:\VICON\USERDATA\INSTALL\Justin_Nancy\Justin_Nancy.ASF
:FULLY-SPECIFIED
:DEGREES
237
root -11.3953 17.1638 18.3477 -5.74296 -46.9283 4.97418
lowerback 6.355 1.51284 -1.83104
upperback 0.291372 1.91761 1.16485
thorax -3.36264 0.988046 2.05421
lowerneck -14.7138 -3.23462 -9.89037
upperneck 24.1264 -3.48277 5.04984
head 10.4233 -1.98042 2.99353
rclavicle 1.79652e-014 -2.14687e-014
rhumerus -32.7059 -17.8288 -73.9965
rradius 32.4711
rwrist 5.48877
rhand -14.5738 11.0811
rfingers 7.12502
rthumb 11.5758 -18.5792
lclavicle 1.79652e-014 -2.14687e-014
lhumerus -36.7116 16.9533 79.4035
lradius 22.3412
lwrist -12.2488
lhand -13.9618 26.6605
lfingers 7.12502
lthumb 12.166 56.2867
rfemur -12.1562 0.513341 18.9033
rtibia 72.2826
rfoot 3.38882 -1.89045
rtoes 5.59373
lfemur -16.6268 -3.13372 -25.7403
ltibia 32.3328
lfoot -10.5203 -2.8742
ltoes 4.96025
238
root -11.5456 17.1771 18.5065 -5.43201 -46.5817 4.63302
lowerback 6.50686 1.28027 -1.7227
upperback 0.176997 1.61874 1.30467
thorax -3.55212 0.841697 2.16198
lowerneck -14.5563 -3.1065 -10.0312
upperneck 24.1575 -3.29115 5.07074
head 10.3909 -1.90685 3.05232
rclavicle -6.28905e-014 6.36111e-015
rhumerus -33.1861 -18.2377 -73.7668
rradius 31.9349
rwrist 6.27495
rhand -14.5598 10.6971
rfingers 7.12502
rthumb 11.5893 -18.9625
lclavicle -6.28905e-014 6.36111e-015
lhumerus -36.2372 16.6381 79.6337
lradius 22.2687
lwrist -12.6395
lhand -13.913 26.7321
lfingers 7.12502
lthumb 12.213 56.3556
rfemur -13.913 -0.0295203 19.1741
rtibia 72.882
rfoot 2.10127 -2.83214
rtoes 6.50006
lfemur -15.8632 -3.31526 -25.6006
ltibia 32.2767
lfoot -11.1309 -3.24059
ltoes 5.9858
239
root -11.7021 17.186 18.6725 -5.5038 -46.3023 4.91428
lowerback 6.29206 1.07718 -2.03758
upperback 0.119109 1.33264 1.41755
thorax -3.48689 0.705904 2.48685
lowerneck -14.2209 -2.96718 -10.3927
upperneck 24.1138 -3.03879 5.06281
head 10.2963 -1.82982 3.14518
rclavicle 1.98785e-014 5.56597e-015
rhumerus -33.616 -18.2088 -73.5049
rradius 31.4468
rwrist 6.74464
rhand -14.57 10.3491
rfingers 7.12502
rthumb 11.5795 -19.311
lclavicle 1.98785e-014 5.56597e-015
lhumerus -35.8951 16.7304 79.9008
lradius 22.3493
lwrist -13.3329
lhand -13.4795 27.2448
lfingers 7.12502
lthumb 12.6309 56.8429
rfemur -15.6685 -0.43259 18.9357
rtibia 73.3055
rfoot 0.983823 -3.94228
rtoes 7.26508
lfemur -15.1169 -3.27851 -25.9666
ltibia 32.2068
lfoot -11.864 -3.40594
ltoes 5.90645
240
root -11.8557 17.1874 18.8396 -5.80536 -46.0602 5.31914
lowerback 6.23592 0.899337 -2.34583
upperback 0.150329 1.07412 1.40772
thorax -3.41338 0.581127 2.67561
lowerneck -14.0604 -2.87144 -10.3511
upperneck 24.0049 -2.85985 4.79294
head 10.207 -1.77457 3.06345
rclavicle 1.81888e-014 3.97569e-015
rhumerus -34.1032 -18.1625 -73.4122
rradius 31.1939
rwrist 7.08605
rhand -14.4962 10.0962
rfingers 7.12502
rthumb 11.6507 -19.5599
lclavicle 1.81888e-014 3.97569e-015
lhumerus -35.3608 16.7701 80.0091
lradius 22.3383
lwrist -14.1798
lhand -12.8737 27.2585
lfingers 7.12502
lthumb 13.215 56.8196
rfemur -17.1969 -0.837297 18.5875
rtibia 73.5246
rfoot 0.468667 -5.7304
rtoes 9.01612
lfemur -14.1431 -3.20276 -26.4459
ltibia 32.0161
lfoot -12.5619 -3.41309
ltoes 5.90826
241
root -12.0088 17.1892 19.0009 -6.18055 -45.6694 5.88433
lowerback 6.29017 0.763635 -2.82753
upperback 0.19139 0.853915 1.29789
thorax -3.39272 0.477764 2.85357
lowerneck -14.3466 -2.93599 -10.0987
upperneck 24.1062 -2.89674 4.45798
head 10.2941 -1.80543 2.89548
rclavicle 6.80216e-014 -1.43125e-014
rhumerus -34.6922 -18.144 -73.3533
rradius 31.0854
rwrist 7.10882
rhand -14.3851 10.0704
rfingers 7.12502
rthumb 11.7578 -19.5796
lclavicle 6.80216e-014 -1.43125e-014
lhumerus -34.5748 16.3207 80.2707
lradius 22.3459
lwrist -14.608
lhand -12.8046 27.252
lfingers 7.12502
lthumb 13.2815 56.8088
rfemur -18.7151 -1.40224 18.0322
rtibia 73.5847
rfoot -2.08622 -4.5255
rtoes 8.47248
lfemur -13.153 -3.47049 -27.0637
ltibia 31.7276
lfoot -13.1701 -3.33886
ltoes 6.79259
242
root -12.1626 17.1893 19.1606 -6.85948 -44.9238 7.10747
lowerback 6.21301 0.527183 -3.85249
upperback 0.156606 0.46214 1.12223
thorax -3.36508 0.298314 3.28628
lowerneck -14.5825 -2.95137 -10.0919
upperneck 24.2378 -2.86378 4.3335
head 10.3839 -1.80434 2.85438
rclavicle 3.14701e-014 -1.51076e-014
rhumerus -35.4578 -17.3801 -73.3805
rradius 31.2495
rwrist 6.42547
rhand -14.1853 10.5596
rfingers 7.12502
rthumb 11.9504 -19.0793
lclavicle 3.14701e-014 -1.51076e-014
lhumerus -33.9963 15.8432 80.6123
lradius 22.6568
lwrist -14.9447
lhand -12.7537 26.9956
lfingers 7.12502
lthumb 13.3306 56.5492
rfemur -20.3656 -2.34188 16.848
rtibia 73.4996
rfoot -4.0375 -3.69558
rtoes 7.49966
lfemur -12.3372 -4.20398 -28.2466
ltibia 31.486
lfoot -13.5989 -3.18048
ltoes 7.70159
243
root -12.3153 17.1767 19.3214 -7.43696 -44.4384 8.01408
lowerback 6.22304 0.404306 -4.5683
upperback 0.196257 0.241935 0.966115
thorax -3.31371 0.19692 3.54826
lowerneck -14.7443 -2.97323 -10.1691
upperneck 24.2231 -2.87139 4.4012
head 10.4129 -1.80411 2.88981
rclavicle 5.80203e-014 -1.27222e-014
rhumerus -36.0783 -18.0006 -72.7851
rradius 30.8748
rwrist 7.51875
rhand -13.2019 11.6591
rfingers 7.12502
rthumb 12.8986 -17.9223
lclavicle 5.80203e-014 -1.27222e-014
lhumerus -33.2968 15.3549 80.9086
lradius 22.9003
lwrist -15.5703
lhand -12.4108 26.9042
lfingers 7.12502
lthumb 13.6611 56.4358
rfemur -21.8959 -2.94877 16.0528
rtibia 73.2096
rfoot -5.85292 -3.37298
rtoes 4.39333
lfemur -11.5367 -4.25387 -29.1434
ltibia 31.4645
lfoot -14.2698 -3.09892
ltoes 6.35596
244
root -12.4683 17.159 19.483 -7.52004 -44.2213 8.1282
lowerback 6.28457 0.312058 -4.7142
upperback 0.262491 0.106588 0.97287
thorax -3.26699 0.129217 3.65001
lowerneck -14.8728 -3.008 -10.0532
upperneck 24.1625 -2.89144 4.24394
head 10.4135 -1.81738 2.80923
rclavicle -4.72114e-015 -1.59028e-014
rhumerus -36.5117 -19.1563 -72.1967
rradius 30.2318
rwrist 8.57594
rhand -13.25 11.8739
rfingers 7.12502
rthumb 12.8522 -17.7104
lclavicle -4.72114e-015 -1.59028e-014
lhumerus -32.5415 14.6987 81.2648
lradius 23.0451
lwrist -15.8457
lhand -12.1744 26.6792
lfingers 7.12502
lthumb 13.8889 56.1954
rfemur -23.2876 -3.15634 16.0066
rtibia 72.6249
rfoot -7.24601 -3.46326
rtoes 3.10649
lfemur -10.784 -4.07775 -29.3682
ltibia 31.651
lfoot -15.0923 -2.84183
ltoes 3.44654
245
root -12.614 17.1472 19.6199 -6.5928 -43.8591 7.36121
lowerback 6.28473 0.12294 -4.32998
upperback 0.160799 -0.112716 1.15642
thorax -3.35104 0.0197906 3.6442
lowerneck -15.148 -3.02176 -9.92278
upperneck 24.2242 -2.88169 4.12293
head 10.4846 -1.81277 2.74425
rclavicle -1.14202e-013 -2.38542e-015
rhumerus -37.0911 -19.242 -72.008
rradius 30.0001
rwrist 8.70238
rhand -13.1709 12.5412
rfingers 7.12502
rthumb 12.9285 -17.0383
lclavicle -1.14202e-013 -2.38542e-015
lhumerus -31.7555 13.7688 81.6723
lradius 23.258
lwrist -15.5367
lhand -12.6841 26.3661
lfingers 7.12502
lthumb 13.3977 55.9153
rfemur -25.1941 -3.40201 16.842
rtibia 71.8049
rfoot -7.77769 -4.11132
rtoes 2.31017
lfemur -10.6586 -4.53055 -28.8189
ltibia 31.9327
lfoot -15.5761 -3.00503
ltoes 3.56456
246
root -12.7641 17.1313 19.7613 -6.03017 -43.5169 7.07004
lowerback 6.14061 0.0586512 -4.13783
upperback 0.145669 -0.179132 1.13749
thorax -3.27983 -0.0177716 3.52087
lowerneck -15.6145 -3.10396 -9.68724
upperneck 24.4055 -3.0084 4.11365
head 10.6462 -1.84779 2.68355
rclavicle -1.5207e-014 -1.19271e-014
rhumerus -37.656 -18.5847 -72.5394
rradius 30.494
rwrist 7.49207
rhand -13.5293 10.8304
rfingers 7.12502
rthumb 12.5829 -18.7706
lclavicle -1.5207e-014 -1.19271e-014
lhumerus -30.8892 12.4907 82.1085
lradius 23.6708
lwrist -14.9138
lhand -13.5963 26.2352
lfingers 7.12502
lthumb 12.5184 55.8402
rfemur -26.9548 -3.62493 17.2311
rtibia 70.7785
rfoot -8.4351 -4.60595
rtoes 0.634947
lfemur -10.4278 -4.91574 -28.6247
ltibia 32.1575
lfoot -15.795 -3.77105
ltoes 6.87089
247
root -12.9228 17.114 19.9287 -6.61158 -43.3842 7.97254
lowerback 6.05351 0.0167018 -4.83419
upperback 0.206791 -0.282026 1.04434
thorax -3.15599 -0.0634276 3.82547
lowerneck -15.7117 -3.1165 -9.92991
upperneck 24.2994 -2.96485 4.19319
head 10.6291 -1.83659 2.75735
rclavicle 1.06673e-013 -1.11319e-014
rhumerus -37.9875 -18.5613 -72.4663
rradius 30.3434
rwrist 7.29187
rhand -13.6591 9.86613
rfingers 7.12502
rthumb 12.4578 -19.7426
lclavicle 1.06673e-013 -1.11319e-014
lhumerus -30.2639 11.9361 82.4926
lradius 24.0114
lwrist -14.5118
lhand -14.4067 26.0272
lfingers 7.12502
lthumb 11.7369 55.6784
rfemur -28.0076 -3.62028 16.3576
rtibia 69.5993
rfoot -9.47592 -4.67798
rtoes 4.63817
lfemur -9.54455 -4.88522 -29.5058
ltibia 32.2412
lfoot -16.4772 -3.78867
ltoes 7.00897
248
root -13.0732 17.1022 20.0905 -6.92764 -43.1472 8.45436
lowerback 6.37181 -0.143795 -5.36009
upperback 0.0523669 -0.548973 1.16781
thorax -3.46287 -0.174708 4.2802
lowerneck -15.172 -2.97996 -10.2387
upperneck 23.8404 -2.7229 4.12791
head 10.3437 -1.75691 2.81558
rclavicle 5.22307e-014 -7.95139e-015
rhumerus -38.4859 -18.4385 -71.9652
rradius 29.8393
rwrist 7.40082
rhand -13.5959 10.044
rfingers 7.12502
rthumb 12.5187 -19.561
lclavicle 5.22307e-014 -7.95139e-015
lhumerus -29.9755 11.4952 82.9191
lradius 24.4349
lwrist -14.0368
lhand -14.0816 26.1466
lfingers 7.12502
lthumb 12.0504 55.7796
rfemur -28.9335 -3.65128 15.8252
rtibia 68.1337
rfoot -10.1324 -4.95934
rtoes 10.6053
lfemur -8.60944 -4.99623 -30.0613
ltibia 32.1445
lfoot -17.1794 -3.28934
ltoes 6.0426
249
root -13.2209 17.0958 20.237 -6.52084 -42.7891 8.17956
lowerback 6.64436 -0.279983 -5.31837
upperback -0.0934238 -0.738898 1.33139
thorax -3.74493 -0.256362 4.45103
lowerneck -15.3452 -2.97861 -10.3264
upperneck 23.9731 -2.67896 4.12339
head 10.4238 -1.74676 2.83552
rclavicle 6.48535e-015 2.3059e-014
rhumerus -39.0693 -18.1391 -71.751
rradius 29.7105
rwrist 6.8546
rhand -13.4651 10.0464
rfingers 7.12502
rthumb 12.6448 -19.5508
lclavicle 6.48535e-015 2.3059e-014
lhumerus -29.3823 10.5936 83.3182
lradius 24.889
lwrist -13.2911
lhand -13.7279 26.2462
lfingers 7.12502
lthumb 12.3915 55.8589
rfemur -30.2266 -3.91116 16.1802
rtibia 66.2589
rfoot -10.1651 -5.77074
rtoes 9.66055
lfemur -7.90962 -5.16359 -29.8961
ltibia 31.8645
lfoot -17.5951 -3.3387
ltoes 6.91295
250
root -13.3718 17.0872 20.3863 -6.09077 -42.3 7.82396
lowerback 6.76112 -0.437494 -5.11519
upperback -0.0571075 -0.936344 1.39294
thorax -3.75161 -0.358529 4.42074
lowerneck -15.7469 -3.01503 -10.4035
upperneck 24.1275 -2.72101 4.34487
head 10.5646 -1.74548 2.92349
rclavicle 2.88238e-014 -1.98785e-014
rhumerus -39.4184 -18.0003 -71.8626
rradius 29.6652
rwrist 6.52483
rhand -13.693 9.31346
rfingers 7.12502
rthumb 12.4251 -20.2972
lclavicle 2.88238e-014 -1.98785e-014
lhumerus -28.5793 9.74292 83.6067
lradius 25.473
lwrist -12.604
lhand -13.4421 26.3627
lfingers 7.12502
lthumb 12.667 55.9585
rfemur -31.3048 -4.31485 16.5977
rtibia 64.0378
rfoot -10.0259 -6.63448
rtoes 5.84549
lfemur -7.11253 -5.31322 -29.6675
ltibia 31.4687
lfoot -17.9279 -3.6866
ltoes 7.95931
251
root -13.5263 17.0851 20.5451 -6.13089 -41.7683 7.95925
lowerback 6.81216 -0.550719 -5.20241
upperback 0.0854522 -1.09791 1.30936
thorax -3.61336 -0.445659 4.39692
lowerneck -15.7401 -3.11133 -10.7003
upperneck 23.8517 -2.90024 4.85353
head 10.4884 -1.78625 3.12921
rclavicle -2.3556e-014 -7.95139e-016
rhumerus -39.7877 -18.2481 -71.7209
rradius 29.4982
rwrist 6.89847
rhand -13.882 9.17351
rfingers 7.12502
rthumb 12.2429 -20.4481
lclavicle -2.3556e-014 -7.95139e-016
lhumerus -27.8041 9.10529 83.77
lradius 26.251
lwrist -11.8267
lhand -13.1385 26.6666
lfingers 7.12502
lthumb 12.9597 56.2442
rfemur -31.8986 -4.56274 16.448
rtibia 61.5894
rfoot -9.92941 -7.4029
rtoes 5.7327
lfemur -6.01626 -5.43114 -29.8753
ltibia 30.9181
lfoot -18.2573 -3.84368
ltoes 7.0773
